<?xml version="1.0" encoding="utf-8"?>
<!-- Generator: Adobe Illustrator 16.0.0, SVG Export Plug-In . SVG Version: 6.00 Build 0)  -->
<!DOCTYPE svg PUBLIC "-//W3C//DTD SVG 1.1//EN" "http://www.w3.org/Graphics/SVG/1.1/DTD/svg11.dtd">
<svg version="1.1" id="Layer_1" xmlns="http://www.w3.org/2000/svg" xmlns:xlink="http://www.w3.org/1999/xlink" x="0px" y="0px"
	 width="135.5px" height="72.5px" viewBox="0 0 135.5 72.5" enable-background="new 0 0 135.5 72.5" xml:space="preserve">
<g>
	<g>
		<path fill="#0F0E0B" d="M87.487,6.212c1.304-0.161,2.621-0.085,3.933-0.098c4.33,0.011,8.659-0.01,12.989,0.003
			c0.292,0.439,0.358,1.01,0.295,1.526c-0.156,1.127,0.013,2.285-0.304,3.389c-0.408,0.506-1.031,0.878-1.238,1.522
			c-1.013,3.987-1.966,7.99-3.187,11.921c-0.375,1.567-0.957,3.067-1.552,4.56c-0.275,0.632-0.255,1.339-0.423,2
			c-0.448,1.559,0.271,3.119,0.987,4.479c0.458-0.135,0.95-0.285,1.257-0.677c0.018-2.058,0.05-4.119,0.003-6.173
			c-0.334-0.236-1.01-0.252-0.604-0.958c1.172-0.625,2.437-1.135,3.775-1.232c0.477,0.063,0.938,0.175,1.426,0.174
			c0.183-0.394,0.497-0.879,1.011-0.733c0.433,0.141,1.187,0.059,0.893,0.881c0.141,0.225,0.427,0.673,0.569,0.899
			c-0.125,0.815-0.773,1.5-0.635,2.373c-0.106,1.205-0.149,2.414,0.104,3.606c0.023,0.709,0.487,1.271,0.65,1.939
			c0.432,0.845-0.656,1.339-0.415,2.18c-0.104,0.355,0.032,1-0.384,1.233c-0.652,0.331-1.387,0.543-2.125,0.429
			c-0.32,0.231-0.598,0.501-0.838,0.81c-0.062,1.042-0.034,2.095-0.212,3.127c-0.224,0.632-0.735,1.098-1.24,1.516
			c0,0.058,0,0.174,0,0.231c1.021,1.02,2.011,2.076,3.13,2.992c1.206,1.043,2.35,2.17,3.657,3.095
			c0.978,0.347,2.061,0.285,3.037,0.661c0.788,0.316,1.708,0.617,2.104,1.434c0.244,0.406-0.331,1.008,0.132,1.312
			c4.17,3.063,8.571,5.796,12.802,8.769c0.17,0.397-0.214,0.6-0.529,0.711c-1.537,0.079-3.081,0.104-4.608-0.094
			c-3.358-0.083-6.72,0.024-10.079-0.037c-0.775-0.846-0.973-2.055-1.815-2.851l-0.112,0.005c-0.318,0.659-0.545,1.358-0.888,2.005
			c-0.365,0.595-0.837,1.112-1.26,1.666c7.026-0.015,14.051-0.02,21.076,0c0.005,1.01,0.055,2.026-0.008,3.037
			c-39.649,0.011-79.297,0.016-118.945-0.002c-0.016-0.907-0.045-1.813,0.001-2.717c4.022-0.02,8.046-0.005,12.071,0.001
			c-0.521-0.712-1.172-1.318-1.738-1.992c-0.559-0.823-0.984-1.727-1.382-2.634c-0.417-1.355-0.439-2.785-0.637-4.177
			c-0.231-0.44-0.802-0.217-1.21-0.191c-0.55,0.42-1.134,0.783-1.79,1.008c-0.018,1.471,0.249,2.94,0.125,4.413
			c-0.619,0.161-1.265,0.215-1.902,0.183c-0.05-1.677,0.062-3.358-0.097-5.032c0-0.386-0.026-0.81,0.138-1.162
			c0.379-0.394,0.881-0.693,1.068-1.243c0.07-2.724-0.125-5.455,0.135-8.17c0.053-5.233,0.103-10.473-0.149-15.699
			c-0.222-0.309-0.513-0.578-0.81-0.812c-0.248,0.027-0.489,0.095-0.737,0.114c-0.421-0.406-0.509-1.35-1.284-1.185
			c-0.627-0.494-1.198-1.102-1.466-1.87c-0.185-0.581-0.851-0.782-1.104-1.315c-0.219-0.41-0.449-1.104,0.011-1.384
			c3.302-0.008,6.612-0.125,9.907,0.142c4.77,0.027,9.542-0.04,14.309,0.024c0.246,0.63-0.183,1.098-0.461,1.58
			c0.24,0.151,0.497,0.285,0.78,0.328c-0.016-0.354-0.191-0.708-0.104-1.06c0.571-0.179,1.05-0.54,1.438-0.994
			c0.487-0.574,1.325-0.694,1.77-1.312c-0.429,0.01-0.859-0.001-1.287-0.03c-0.35-0.331-0.473-0.851-0.156-1.25
			c0.429-0.006,1.288-0.019,1.715-0.027c0.002-0.079,0.007-0.235,0.008-0.314c-1.931-0.024-3.86,0.024-5.791,0.002
			c-0.315-0.003-0.618-0.103-0.91-0.209c-0.121-0.222-0.402-0.629,0.013-0.704c2.423-0.399,4.894-0.146,7.337-0.217
			c0.731,0.066,1.616-0.124,2.245,0.363c0.019,0.341-0.2,0.625-0.315,0.931c0.582,0.29,1.32-0.016,1.879,0.364
			c0.17,0.259,0.248,0.569,0.195,0.879c-0.452,0.265-0.984,0.132-1.479,0.098c0.024,0.056,0.073,0.167,0.097,0.222
			c0.896,0.236,1.818,0.501,2.468,1.217c0.442,0.318,0.807,1.013,1.444,0.872c1.526-0.035,2.963-0.521,4.339-1.137
			c1.911-0.63,3.574-1.813,5.101-3.1c1.161-0.973,2.556-1.722,3.452-2.974c0.354-0.409,0.947-0.304,1.44-0.299
			c0.124,0.399,0.15,0.813,0.256,1.219c0.367,0.68,0.858,1.278,1.313,1.899c0.32,0.778,0.215,1.661,0.415,2.469
			c0.175,0.439,0.602,0.685,0.899,1.031c-0.04,0.141-0.095,0.278-0.164,0.408c-0.754,0.273-1.577,0.143-2.36,0.222
			c0.007,0.066,0.018,0.198,0.024,0.264c0.453,0.291,0.902,0.597,1.281,0.984c1.015,0.311,2.102,0.25,3.146,0.362
			c0.206,0.211,0.265,0.51,0.342,0.785c-0.173,0.482-0.608,0.862-0.469,1.442c-0.24,1.875-0.19,3.771-0.002,5.647
			c0.011,0.217,0.06,0.478-0.189,0.581c-0.424-0.022-0.847-0.055-1.272-0.077c-0.196-0.048-0.443,0.051-0.473,0.27
			c0.745,0.417,1.717,0.072,2.534,0.175c0.047-0.056,0.14-0.169,0.187-0.225c0.021-1.637,0.298-3.254,0.391-4.886
			c0.169-1.788,0.156-3.67,0.935-5.331c0.625-1.389,1.919-2.294,3.138-3.127c0.572-0.426,1.334-0.442,1.948-0.793
			c0.417-1.527,0.42-3.201,1.184-4.616c0.36,0.424,0.8,0.836,0.788,1.455c0.341,1.468,0.539,2.966,0.633,4.469
			c-0.152,0.327-0.412,0.606-0.48,0.968c0.487,0.447,1.32-0.09,1.778,0.396c0.076,0.461-0.193,0.818-0.323,1.222
			c0.741,0.581,1.135,1.453,1.688,2.193c0.262,0.174,0.555,0.297,0.825,0.463c0.225,0.257,0.318,0.648,0.132,0.954
			c-0.198,0.542-1.167,0.555-0.71,1.397c0.034,0.99-0.116,2.005,0.05,2.985c0.246,0.241,0.525,0.461,0.685,0.777
			c0.187,0.583,0.243,1.283,0.771,1.683c3.733,0.048,7.468-0.006,11.202,0.026c0.275-0.018,0.604,0.045,0.798-0.204
			c-0.031-0.659-0.947-0.954-0.642-1.721c0.042-0.739,0.479-1.466,0.278-2.215c-0.41-1.127-0.812-2.257-1.098-3.421
			c-1.323-3.884-2.311-7.875-3.672-11.745c-0.469-1.358-0.628-2.844-1.375-4.095c-0.288-0.68-0.219-1.447-0.249-2.167
			c-0.013-1.071-0.008-2.142,0.016-3.211C84.324,6.215,85.915,6.376,87.487,6.212z M56.919,19.683
			c-0.513,0.191-0.875,0.631-1.311,0.942c-0.918,0.773-2.001,1.307-2.955,2.029c-1.083,0.767-2.143,1.616-3.415,2.052
			c-1.415,0.482-2.746,1.279-4.271,1.358c-0.736-0.118-1.301,0.397-1.917,0.682c0.214,0.96-0.301,1.865-0.188,2.831
			c-0.278,0.966,0.59,1.449,1.259,1.838c-0.013,0.443-0.135,0.889-0.1,1.336c1.622,0.984,3.58,1.095,5.227,2.025
			c1.781,0.576,3.727,0.153,5.566,0.283c-0.322-0.797-1.649,0.201-1.772-0.72c0.24-2.276,0.55-4.621-0.003-6.875
			c-0.043-0.423,0.042-0.83,0.142-1.232c0.932-0.065,1.87,0.013,2.804-0.045c0.415-0.5,0.979-0.952,1.189-1.567
			c-0.458,0.042-0.918,0.145-1.381,0.112c-0.187-0.145-0.36-0.307-0.521-0.479c0.149-0.484,0.495-0.871,0.73-1.313
			c0.142-0.664,0.217-1.344,0.405-1.998c0.14-0.503,0.49-0.904,0.748-1.348C57.098,19.615,56.979,19.66,56.919,19.683z
			 M69.921,22.265c-0.5,0.481-1.288,0.256-1.769,0.773c-0.891,0.769-1.664,1.773-1.883,2.95c-0.447,1.878-0.551,3.815-0.693,5.733
			c-0.021,1.003-0.21,2.108,0.287,3.036c0.17-0.137,0.177-0.376,0.264-0.563c0.218-0.708,0.631-1.342,0.834-2.058
			c0.071-1.138,0.048-2.288-0.039-3.424c-0.32-0.421-0.68-0.923-0.558-1.482c0.426-0.577,1.203-0.72,1.646-1.275
			c0.306-0.404,0.771-0.624,1.17-0.919c0.175-0.144,0.425-0.287,0.365-0.555c-0.378-0.24-1.114-0.357-0.947-0.958
			c0.501-0.527,1.302-0.326,1.937-0.378c-0.067-0.36-0.271-0.677-0.519-0.938L69.921,22.265z M32.459,28.959
			c-0.313,1.254-0.424,2.59-0.013,3.841c0.203,0.011,0.407,0.01,0.609-0.006c0.005-0.414-0.17-0.811-0.13-1.222
			c0.167-0.166,0.357-0.307,0.534-0.463c0.36-0.574,0.208-1.306,0.236-1.942C33.472,28.692,32.789,29.119,32.459,28.959z
			 M17.509,30.088c-0.149,0.461-0.278,0.934-0.21,1.431c-0.079,1.982,0.244,3.951,0.182,5.935c1.331,0.03,2.663,0.029,3.994,0.005
			c0.021-2.458,0.019-4.918,0-7.378C20.152,30.054,18.831,30.049,17.509,30.088z M24.865,30.08c0.354,1.754-0.296,3.543,0.167,5.289
			c0.2-0.045,0.264-0.27,0.381-0.41c0.365-0.585,0.799-1.122,1.238-1.651c0.381-0.23,0.801-0.381,1.201-0.574
			c0.159-0.905,0.368-1.799,0.706-2.654C27.326,30.038,26.095,30.065,24.865,30.08z M99.117,39.903
			c-0.251,0.325-0.134,0.749,0.064,1.067c0.505,0.088,1.053-0.021,1.521,0.234c0.337,0.275,0.521,0.688,0.674,1.085
			c-0.092,0.616-0.709,0.792-1.241,0.836c-0.052,0.339,0.482,0.322,0.714,0.259c1.008-0.712,0.865-2.127,0.703-3.193
			c-0.369,0.231-0.659,0.72-1.198,0.413C99.95,40.355,99.532,40.131,99.117,39.903z M99.95,45.813
			c0.069,1.973-0.143,3.938-0.154,5.907c0.045,0.053,0.135,0.161,0.18,0.215c0.567-0.05,1.082-0.362,1.67-0.295
			c0.264,0.239,0.424,0.631,0.828,0.661c1.555,0.328,3.153-0.008,4.725-0.048c-0.667-0.679-1.288-1.407-2.019-2.016
			c-1.691-1.41-3.175-3.062-4.971-4.347C100.145,45.869,100.014,45.831,99.95,45.813z M49.538,49.278
			c-0.177,0.024-0.352,0.055-0.525,0.09c0.36,1.68,0.643,3.375,0.96,5.064c0.067,0.071,0.202,0.214,0.27,0.284
			c0.166-1.783,0.736-3.509,0.816-5.297C50.731,48.921,49.968,49.384,49.538,49.278z M68.429,49.53
			c0.057,1.492,0.553,2.921,0.745,4.397c0.17,0.37,0.05,0.942,0.358,1.265c0.248-1.844,0.637-3.664,0.961-5.494
			C69.953,49.221,69.069,49.668,68.429,49.53z M82.159,50.237c-0.25,0.055-0.506,0.114-0.709,0.277c0.18,0.637,0.905,1,1.031,1.694
			c2.037,0.148,4.098,0.015,6.145,0.034c0.358-0.363,1.219-1.037,0.677-1.577c-0.693,0.098-1.201,0.95-1.987,0.564
			c-0.789-0.042-1.208-0.945-2.001-0.904C84.258,50.324,83.21,50.249,82.159,50.237z M45.972,50.537
			c-0.36,0.363-0.979,0.575-1.178,1.066c0.334,0.368,0.764,0.638,1.137,0.964c1.046,0.773,1.997,1.666,3.061,2.417
			c-0.204-0.513-0.577-0.936-0.855-1.405c-0.672-1.006-1.246-2.075-1.934-3.069C46.145,50.516,46.029,50.528,45.972,50.537z
			 M54.146,50.678c-0.802,1.141-1.482,2.363-2.267,3.516c-0.225,0.368-0.524,0.701-0.668,1.114c0.651-0.468,1.218-1.042,1.839-1.548
			c0.743-0.506,1.571-0.876,2.309-1.394c0.083-0.137,0.152-0.281,0.206-0.431C55.355,51.297,54.789,50.834,54.146,50.678z
			 M65.263,50.856c-0.473,0.267-0.913,0.59-1.331,0.933c0.961,0.802,2.005,1.505,2.931,2.355c0.466,0.327,0.836,0.846,1.394,1.027
			c-0.288-0.645-0.748-1.196-1.101-1.802c-0.558-0.844-1.039-1.741-1.656-2.545C65.442,50.833,65.323,50.849,65.263,50.856z
			 M73.459,50.991c-0.367,0.359-0.577,0.839-0.863,1.256c-0.672,1.093-1.405,2.149-2.06,3.252c0.963-0.479,1.555-1.516,2.574-1.931
			c0.656-0.269,1.246-0.679,1.74-1.188c-0.071-0.627-0.645-1.1-1.143-1.41C73.646,50.976,73.522,50.987,73.459,50.991z
			 M43.371,53.694c-0.227,0.429-0.344,0.928-0.342,1.415c0.053,0.04,0.159,0.121,0.212,0.162c1.646,0.288,3.301,0.543,4.947,0.843
			c-0.534-0.424-1.19-0.648-1.785-0.965C45.391,54.668,44.421,54.089,43.371,53.694z M62.662,53.898
			c-0.198,0.488-0.358,0.998-0.333,1.535c0.6,0.283,1.281,0.225,1.918,0.367c0.961,0.201,1.93,0.396,2.912,0.471
			c-0.218-0.347-0.635-0.461-0.974-0.648C65.001,55.067,63.855,54.434,62.662,53.898z M21.898,55.073
			c-0.619,0.043-1.236,0.077-1.855,0.1c0.002,0.239,0.003,0.715,0.005,0.955c1.013-0.175,2.116-0.413,2.897-1.135
			C22.683,55.012,22.159,55.054,21.898,55.073z M56.75,55.046c-1.479,0.386-3.003,0.812-4.259,1.705
			c1.73,0.119,3.442-0.25,5.172-0.17c0.001-0.543-0.218-1.052-0.379-1.561C57.104,54.988,56.927,54.998,56.75,55.046z
			 M76.363,55.218c-1.627,0.474-3.315,0.937-4.744,1.857c1.137,0.009,2.267-0.139,3.405-0.148c0.632-0.077,1.32,0.071,1.924-0.195
			c-0.092-0.529-0.204-1.053-0.336-1.571C76.549,55.176,76.426,55.204,76.363,55.218z M44.722,57.001
			c-0.617,0.043-1.236,0.077-1.854,0.103c-0.021,0.44,0.093,0.903,0.359,1.259c0.183,0.008,0.366-0.008,0.548-0.046
			c1.502-0.341,3.003-0.7,4.529-0.928l-0.008-0.134C47.116,57.037,45.929,56.755,44.722,57.001z M20.392,57.258
			c-0.421,0.331-0.106,0.921,0.154,1.259c0.792-0.183,1.571-0.426,2.344-0.675c0.006-0.066,0.019-0.196,0.024-0.262
			C22.082,57.424,21.238,57.303,20.392,57.258z M62.152,57.253c-0.016,0.495,0.174,0.961,0.358,1.41
			c1.721-0.354,3.44-0.72,5.154-1.113l-0.08-0.114C65.794,57.104,63.959,57.26,62.152,57.253z M51.058,57.877
			c0.606,1.799,1.175,3.638,2.104,5.309c0.381-0.209,0.749-0.447,1.116-0.683c0.05-0.262-0.085-0.482-0.278-0.644
			c-0.789-0.738-1.305-1.699-1.924-2.572C51.729,58.823,51.538,58.226,51.058,57.877z M52.5,57.89
			c0.266,0.381,0.67,0.622,1.029,0.907c0.86,0.637,1.617,1.41,2.521,1.99c0.388-0.387,0.669-0.902,0.811-1.432
			C55.445,58.77,53.988,58.26,52.5,57.89z M70.206,58.025c0.689,1.773,1.337,3.566,2.124,5.3c0.433-0.095,0.83-0.312,1.229-0.498
			c0.104-0.481-0.309-0.813-0.635-1.081C71.895,60.603,71.274,59.133,70.206,58.025z M79.228,58.058
			c-0.113,0.837-0.179,1.682-0.037,2.518c-0.185,0.159-0.402,0.284-0.635,0.352c-0.336-0.104-0.642-0.278-0.954-0.436
			c-0.994,1.818-2.497,3.259-4.039,4.612c2.588,0.019,5.182,0.069,7.769-0.064c0.203-0.006,0.403,0.026,0.607,0.037
			c-0.079-0.351-0.255-0.675-0.534-0.903c-0.377-0.076-0.678,0.294-1.04,0.257c-0.388-0.194-0.733-0.617-0.687-1.071
			c-0.09-1.302,1.183-2.305,0.91-3.617c-0.425-0.473-0.653-1.058-0.794-1.667C79.606,58.044,79.417,58.04,79.228,58.058z
			 M71.929,58.221c1.026,1.068,2.246,1.942,3.394,2.873c0.315-0.45,0.658-0.9,0.854-1.417C74.823,59.04,73.395,58.535,71.929,58.221
			z M48.572,58.609c-1.278,0.913-2.564,1.825-3.756,2.849c0.003,0.061,0.006,0.18,0.01,0.24c0.433,0.494,0.992,0.879,1.577,1.172
			c0.301-0.088,0.473-0.417,0.633-0.656c0.666-1.199,1.22-2.455,1.754-3.717C48.736,58.525,48.627,58.582,48.572,58.609z
			 M49.958,58.482c-0.161,1.042-0.276,2.09-0.473,3.127c-0.146,0.727-0.251,1.466-0.187,2.212c0.643,0.027,1.286,0.029,1.933,0.006
			c-0.267-1.616-0.658-3.211-0.955-4.822C50.27,58.781,50.124,58.614,49.958,58.482z M68.022,58.765
			c-1.264,0.933-2.56,1.823-3.78,2.815c-0.31,0.206-0.162,0.839,0.312,0.815c0.397,0.27,0.854,0.791,1.402,0.596
			c0.872-1.354,1.438-2.868,2.167-4.295L68.022,58.765z M69.273,58.89c-0.33,1.664-0.664,3.354-0.659,5.056
			c0.616,0.191,1.262,0.225,1.891,0.041c-0.368-1.717-0.682-3.455-1.109-5.155L69.273,58.89z M23.32,59.232
			c-0.825,0.177-1.654,0.351-2.449,0.635c-0.162,0.46,0.072,0.881,0.322,1.231c1.056-0.339,2.046-1.029,2.703-1.933
			C23.701,59.175,23.509,59.197,23.32,59.232z M94.014,60.049c-0.867,0.285-1.719,0.669-2.433,1.246
			c-0.014,0.194-0.014,0.389,0.003,0.585c2.621,0.069,5.25,0.064,7.865-0.162c-0.01-0.254,0.108-0.651-0.26-0.672
			c-0.769-0.227-1.396-0.77-2.14-1.039c-0.49,0.132-0.966,0.327-1.468,0.409C95.048,60.321,94.543,60.139,94.014,60.049z
			 M24.72,60.667c-0.879,0.55-1.722,1.159-2.574,1.75c0.33,0.6,1.015,0.905,1.577,1.26c0.466-0.98,1.19-1.939,1.119-3.08
			L24.72,60.667z M42.722,61.89c-0.198,0.389-0.238,0.833-0.386,1.241c-0.134,0.238-0.421,0.249-0.654,0.322
			c-2.7,0.333-5.423,0.182-8.134,0.223c-0.532-0.306-0.794,0.104-1.104,0.357c-0.384,0.363-0.815,0.682-1.169,1.077
			c4.785,0.013,9.571,0.02,14.357-0.006c-1.132-0.83-1.963-1.947-2.672-3.14C42.9,61.946,42.781,61.91,42.722,61.89z M61.416,61.971
			c-0.746,0.135-1.505,0.203-2.259,0.276c-0.254,0.362-0.349,0.817-0.64,1.158c-0.333,0.519-0.873,0.837-1.381,1.159
			c-0.466-0.024-0.83-0.397-1.25-0.569c-0.47,0.254-0.782,0.725-1.132,1.113c3.606,0.027,7.212,0.001,10.818,0.013
			c-0.63-0.511-1.307-0.965-1.933-1.481c-0.415-0.407-0.645-0.958-1.05-1.366C62.228,62.101,61.828,61.879,61.416,61.971z
			 M26.495,62.894c-0.257,0.569-0.473,1.159-0.643,1.76c0.645-0.022,1.33-0.01,1.903-0.347
			C27.487,63.721,27.104,63.157,26.495,62.894z M92.631,63.282c-0.699,0.082-1.408,0.058-2.106,0.114
			c-0.674,0.304-0.979,1.076-1.518,1.553c2.621,0.01,5.241,0.035,7.861-0.018c1.56-0.222,3.134-0.108,4.703-0.14
			c-0.214-0.628-0.809-1.045-1.204-1.564c-0.725-0.114-1.469-0.016-2.194-0.042C96.326,63.225,94.472,63.096,92.631,63.282z"/>
	</g>
</g>
</svg>
